<?xml version="1.0" encoding="UTF-8" standalone="no"?>
<svg
   xmlns:dc="http://purl.org/dc/elements/1.1/"
   xmlns:cc="http://creativecommons.org/ns#"
   xmlns:rdf="http://www.w3.org/1999/02/22-rdf-syntax-ns#"
   xmlns:svg="http://www.w3.org/2000/svg"
   xmlns="http://www.w3.org/2000/svg"
   xmlns:sodipodi="http://sodipodi.sourceforge.net/DTD/sodipodi-0.dtd"
   xmlns:inkscape="http://www.inkscape.org/namespaces/inkscape"
   version="1.1"
   id="Layer_1"
   x="0px"
   y="0px"
   width="100%"
   height="100%"
   preserveAspectRatio="none"
   viewBox="0 0 60 60"
   enable-background="new 0 0 60 60"
   xml:space="preserve"
   sodipodi:docname="magnifier_hov.svg"
   inkscape:version="0.92.4 (5da689c313, 2019-01-14)"><metadata
   id="metadata207"><rdf:RDF><cc:Work
       rdf:about=""><dc:format>image/svg+xml</dc:format><dc:type
         rdf:resource="http://purl.org/dc/dcmitype/StillImage" /><dc:title></dc:title></cc:Work></rdf:RDF></metadata><defs
   id="defs205" /><sodipodi:namedview
   pagecolor="#ffffff"
   bordercolor="#666666"
   borderopacity="1"
   objecttolerance="10"
   gridtolerance="10"
   guidetolerance="10"
   inkscape:pageopacity="0"
   inkscape:pageshadow="2"
   inkscape:window-width="1366"
   inkscape:window-height="705"
   id="namedview203"
   showgrid="false"
   inkscape:zoom="8.9333333"
   inkscape:cx="30"
   inkscape:cy="30"
   inkscape:window-x="-8"
   inkscape:window-y="-8"
   inkscape:window-maximized="1"
   inkscape:current-layer="Layer_1" />
<path
   style="fill:none;stroke:#dddddd;stroke-width:6;stroke-miterlimit:10"
   d="M 42,23.5 A 18.5,18.5 0 0 1 23.5,42 18.5,18.5 0 0 1 5,23.5 18.5,18.5 0 0 1 23.5,5 18.5,18.5 0 0 1 42,23.5 Z"
   id="circle198" />
<line
   fill="#ddd"
   stroke="#ddd"
   stroke-width="6"
   stroke-miterlimit="10"
   x1="35"
   y1="36"
   x2="56"
   y2="57"
   id="line200" />
<path
   style="fill:none;stroke-width:0.1119403"
   d="M 44.843083,50.048482 35.87664,41.082038 34.936454,41.672204 C 31.961815,43.539422 28.465787,44.66817 24.934969,44.90134 13.390701,45.66371 3.4112781,37.271493 2.1557197,25.745083 1.0846684,15.912504 7.0747843,6.467505 16.434719,3.2304719 c 8.85184,-3.06131444 18.599887,-0.094206 24.214071,7.3702741 2.83676,3.771685 4.27984,8.112562 4.279542,12.873135 -2.23e-4,3.544708 -0.714263,6.605243 -2.259066,9.682835 -0.529913,1.055707 -1.679773,2.890408 -2.204279,3.517115 l -0.273519,0.326816 8.935284,8.935807 8.935284,8.935807 -2.069063,2.071332 c -1.137984,1.139233 -2.094798,2.071332 -2.126254,2.071332 -0.03146,0 -4.092091,-4.034899 -9.023636,-8.966443 z M 26.061829,38.80689 c 4.894618,-0.840548 9.074878,-3.933069 11.306705,-8.364602 0.560903,-1.113732 0.900199,-2.047315 1.249254,-3.437354 0.270383,-1.076741 0.296716,-1.37675 0.300122,-3.419113 0.0029,-1.731982 -0.04109,-2.446393 -0.194248,-3.155783 C 37.386356,14.236068 32.800162,9.6505515 26.572697,8.2808659 25.119793,7.96131 22.166103,7.9366744 20.689478,8.2317962 c -3.22271,0.6440982 -5.842481,2.0360328 -8.137816,4.3237788 -2.273299,2.265784 -3.6742642,4.903669 -4.3198658,8.133903 -0.2951218,1.476625 -0.2704862,4.430315 0.04907,5.883219 0.7675691,3.48986 2.3892088,6.259353 5.0461058,8.617919 2.024678,1.797335 4.877341,3.161431 7.549488,3.61004 1.274453,0.213958 3.956979,0.217183 5.185369,0.0062 z"
   id="path216"
   inkscape:connector-curvature="0" /><path
   style="fill:none;stroke-width:0.1119403"
   d="M 21.962687,38.907525 C 18.394872,38.455316 15.401117,37.088626 12.923464,34.780995 10.544898,32.565651 8.7607683,29.240194 8.2509225,26.071797 8.0480926,24.811325 8.019304,22.33591 8.1944621,21.217 9.1515309,15.103245 13.57602,10.133409 19.44403,8.5808517 c 1.493205,-0.3950722 2.390788,-0.5086972 4.028375,-0.5099522 4.244554,-0.00325 7.957214,1.5213705 10.920018,4.4843635 2.246894,2.247037 3.595563,4.735265 4.268482,7.875139 0.324166,1.512574 0.352547,4.45173 0.05724,5.928169 -1.257015,6.284744 -6.085093,11.129684 -12.298436,12.341389 -0.909832,0.177432 -3.677756,0.306336 -4.457026,0.207565 z"
   id="path218"
   inkscape:connector-curvature="0" /><path
   style="fill:#ff0000;stroke-width:0.1119403"
   d="M 44.843083,50.048482 35.87664,41.082038 34.936454,41.672204 C 31.961815,43.539422 28.465787,44.66817 24.934969,44.90134 13.390701,45.66371 3.4112781,37.271493 2.1557197,25.745083 1.0846684,15.912504 7.0747843,6.467505 16.434719,3.2304719 c 8.85184,-3.06131444 18.599887,-0.094206 24.214071,7.3702741 2.83676,3.771685 4.27984,8.112562 4.279542,12.873135 -2.23e-4,3.544708 -0.714263,6.605243 -2.259066,9.682835 -0.529913,1.055707 -1.679773,2.890408 -2.204279,3.517115 l -0.273519,0.326816 8.935284,8.935807 8.935284,8.935807 -2.069063,2.071332 c -1.137984,1.139233 -2.094798,2.071332 -2.126254,2.071332 -0.03146,0 -4.092091,-4.034899 -9.023636,-8.966443 z M 26.061829,38.80689 c 4.894618,-0.840548 9.074878,-3.933069 11.306705,-8.364602 0.560903,-1.113732 0.900199,-2.047315 1.249254,-3.437354 0.270383,-1.076741 0.296716,-1.37675 0.300122,-3.419113 0.0029,-1.731982 -0.04109,-2.446393 -0.194248,-3.155783 C 37.386356,14.236068 32.800162,9.6505515 26.572697,8.2808659 25.119793,7.96131 22.166103,7.9366744 20.689478,8.2317962 c -3.22271,0.6440982 -5.842481,2.0360328 -8.137816,4.3237788 -2.273299,2.265784 -3.6742642,4.903669 -4.3198658,8.133903 -0.2951218,1.476625 -0.2704862,4.430315 0.04907,5.883219 0.7675691,3.48986 2.3892088,6.259353 5.0461058,8.617919 2.024678,1.797335 4.877341,3.161431 7.549488,3.61004 1.274453,0.213958 3.956979,0.217183 5.185369,0.0062 z"
   id="path220"
   inkscape:connector-curvature="0" /></svg>